<svg width="24" height="24" viewBox="0 0 24 24" fill="none" xmlns="http://www.w3.org/2000/svg">
<rect width="24" height="24" rx="12" fill="#FF9200"/>
<path d="M11.7328 2.52361C11.8441 2.30543 12.1559 2.30543 12.2672 2.52361L14.9283 7.73808C14.9719 7.82349 15.0537 7.88292 15.1484 7.89798L20.93 8.8175C21.1719 8.85597 21.2682 9.15246 21.0952 9.32577L16.9582 13.468C16.8905 13.5359 16.8592 13.632 16.8742 13.7267L17.7863 19.5095C17.8244 19.7515 17.5722 19.9347 17.3539 19.8236L12.136 17.1692C12.0506 17.1257 11.9494 17.1257 11.864 17.1692L6.6461 19.8236C6.42778 19.9347 6.17557 19.7515 6.21374 19.5095L7.12583 13.7267C7.14077 13.632 7.10953 13.5359 7.04177 13.468L2.90484 9.32577C2.73175 9.15246 2.82809 8.85597 3.06999 8.8175L8.85157 7.89798C8.94628 7.88292 9.02808 7.82349 9.07167 7.73808L11.7328 2.52361Z" fill="white"/>
</svg>
